<svg width="952" height="187" viewBox="0 0 952 187" fill="none" xmlns="http://www.w3.org/2000/svg">
<g clip-path="url(#clip0_411_1452)">
<g clip-path="url(#clip1_411_1452)">
<path d="M95.1999 190.5C120.449 190.5 144.663 180.465 162.516 162.602C180.37 144.739 190.4 120.512 190.4 95.25L190.4 1.52588e-05L-0.000102043 6.93614e-06L-0.000106207 95.25C-0.000107311 120.512 10.0299 144.739 27.8833 162.602C45.7368 180.465 69.9513 190.5 95.1999 190.5Z" fill="#292929"/>
</g>
<g clip-path="url(#clip2_411_1452)">
<path d="M476.003 1.94201e-05C528.581 2.17183e-05 571.203 42.6449 571.203 95.25C571.203 147.855 528.581 190.5 476.003 190.5C423.426 190.5 380.803 147.855 380.803 95.25C380.803 42.6449 423.426 1.71219e-05 476.003 1.94201e-05Z" fill="#925FF0"/>
</g>
<g clip-path="url(#clip3_411_1452)">
<path d="M761.597 4.02707e-05C761.597 25.2619 751.567 49.4891 733.714 67.352C715.86 85.2148 691.646 95.25 666.397 95.25C641.148 95.25 616.934 85.2148 599.08 67.352C581.227 49.4891 571.197 25.2619 571.197 3.19481e-05L761.597 4.02707e-05Z" fill="#BE9FF6"/>
</g>
<g clip-path="url(#clip4_411_1452)">
<path d="M857.2 190.5C804.623 190.5 762 147.855 762 95.25C762 42.6449 804.623 3.93168e-05 857.2 4.1615e-05C909.778 4.39133e-05 952.4 42.6449 952.4 95.25C952.4 147.855 909.778 190.5 857.2 190.5Z" fill="#925FF0"/>
</g>
</g>
<defs>
<clipPath id="clip0_411_1452">
<rect width="762" height="952" fill="white" transform="matrix(-4.37114e-08 1 1 4.37114e-08 0 0)"/>
</clipPath>
<clipPath id="clip1_411_1452">
<rect width="190.4" height="190.5" fill="white" transform="matrix(-1 -4.37114e-08 -4.37114e-08 1 190.4 1.52588e-05)"/>
</clipPath>
<clipPath id="clip2_411_1452">
<rect width="190.4" height="190.5" fill="white" transform="matrix(1 4.37114e-08 4.37114e-08 -1 380.803 190.5)"/>
</clipPath>
<clipPath id="clip3_411_1452">
<rect width="190.4" height="190.5" fill="white" transform="matrix(1 4.37114e-08 4.37114e-08 -1 571.197 190.5)"/>
</clipPath>
<clipPath id="clip4_411_1452">
<rect width="190.4" height="190.5" fill="white" transform="matrix(-1 -4.37114e-08 -4.37114e-08 1 952.4 4.57764e-05)"/>
</clipPath>
</defs>
</svg>
