<svg width="762" height="948" viewBox="0 0 762 948" fill="none" xmlns="http://www.w3.org/2000/svg">
<g clip-path="url(#clip0_306_8169)">
<g clip-path="url(#clip1_306_8169)">
<path d="M190.5 95.2C190.5 120.449 180.465 144.663 162.602 162.517C144.739 180.37 120.512 190.4 95.25 190.4L0 190.4L0 2.00272e-05L95.25 2.00272e-05C120.512 2.00272e-05 144.739 10.03 162.602 27.8835C180.465 45.7369 190.5 69.9514 190.5 95.2Z" fill="#292929"/>
</g>
<g clip-path="url(#clip2_306_8169)">
<path d="M285.744 190.4C260.482 190.4 236.255 180.37 218.392 162.517C200.529 144.663 190.494 120.449 190.494 95.2V0H380.994V95.2C380.994 120.449 370.958 144.663 353.096 162.517C335.233 180.37 311.006 190.4 285.744 190.4Z" fill="#292929"/>
</g>
<g clip-path="url(#clip3_306_8169)">
<path d="M571.503 95.2C571.503 120.449 561.468 144.663 543.605 162.517C525.742 180.37 501.515 190.4 476.253 190.4L381.003 190.4L381.003 2.00272e-05L476.253 2.00272e-05C501.515 2.00272e-05 525.742 10.03 543.605 27.8835C561.468 45.7369 571.503 69.9514 571.503 95.2Z" fill="#292929"/>
</g>
<g clip-path="url(#clip4_306_8169)">
<path d="M571.503 285.594C571.503 304.423 565.917 322.828 555.451 338.484C544.984 354.14 530.108 366.342 512.704 373.547C495.299 380.753 476.148 382.638 457.671 378.964C439.194 375.291 422.222 366.224 408.901 352.91C395.58 339.596 386.509 322.633 382.833 304.166C379.158 285.699 381.044 266.558 388.254 249.162C395.463 231.767 407.671 216.899 423.335 206.438C438.999 195.977 457.415 190.394 476.253 190.394H571.503V285.594Z" fill="#C8FEC7"/>
</g>
<g clip-path="url(#clip5_306_8169)">
<path d="M0 476.003C0 528.581 42.6449 571.203 95.25 571.203C147.855 571.203 190.5 528.581 190.5 476.003C190.5 423.426 147.855 380.803 95.25 380.803C42.6449 380.803 0 423.426 0 476.003Z" fill="#925FF0"/>
</g>
<g clip-path="url(#clip6_306_8169)">
<path d="M285.744 571.203C260.482 571.203 236.255 561.173 218.392 543.32C200.529 525.466 190.494 501.252 190.494 476.003V380.803H380.994V476.003C380.994 501.252 370.958 525.466 353.096 543.32C335.233 561.173 311.006 571.203 285.744 571.203Z" fill="#292929"/>
</g>
<g clip-path="url(#clip7_306_8169)">
<path d="M1.43051e-06 761.597C25.2619 761.597 49.4891 751.567 67.3519 733.713C85.2148 715.86 95.25 691.646 95.25 666.397C95.25 641.148 85.2148 616.934 67.3519 599.08C49.4891 581.227 25.2619 571.197 1.43051e-06 571.197L1.43051e-06 761.597Z" fill="#BE9FF6"/>
</g>
<g clip-path="url(#clip8_306_8169)">
<path d="M381.003 380.803C381.003 406.052 391.038 430.266 408.901 448.12C426.764 465.973 450.991 476.003 476.253 476.003C501.515 476.003 525.742 465.973 543.605 448.12C561.468 430.266 571.503 406.052 571.503 380.803H381.003Z" fill="#BE9FF6"/>
</g>
<g clip-path="url(#clip9_306_8169)">
<path d="M666.747 380.803C692.009 380.803 716.236 390.833 734.099 408.687C751.962 426.54 761.997 450.755 761.997 476.003V571.203H571.497V476.003C571.497 450.755 581.532 426.54 599.395 408.687C617.258 390.833 641.485 380.803 666.747 380.803Z" fill="#292929"/>
</g>
<g clip-path="url(#clip10_306_8169)">
<path d="M381.003 666.397C381.003 641.148 391.038 616.934 408.901 599.08C426.764 581.227 450.991 571.197 476.253 571.197H571.503V761.597H476.253C450.991 761.597 426.764 751.567 408.901 733.713C391.038 715.86 381.003 691.646 381.003 666.397Z" fill="#292929"/>
</g>
<g clip-path="url(#clip11_306_8169)">
<path d="M190.5 857.2C190.5 804.623 147.855 762 95.25 762C42.6449 762 0 804.623 0 857.2C0 909.778 42.6449 952.4 95.25 952.4C147.855 952.4 190.5 909.778 190.5 857.2Z" fill="#925FF0"/>
</g>
<g clip-path="url(#clip12_306_8169)">
<path d="M190.494 857.2C190.494 831.951 200.529 807.737 218.392 789.883C236.255 772.03 260.482 762 285.744 762H380.994V952.4H285.744C260.482 952.4 236.255 942.37 218.392 924.517C200.529 906.663 190.494 882.449 190.494 857.2Z" fill="#292929"/>
</g>
<g clip-path="url(#clip13_306_8169)">
<path d="M571.503 952.4C571.503 927.151 561.468 902.937 543.605 885.083C525.742 867.23 501.515 857.2 476.253 857.2C450.991 857.2 426.764 867.23 408.901 885.083C391.038 902.937 381.003 927.151 381.003 952.4H571.503Z" fill="#BE9FF6"/>
</g>
<g clip-path="url(#clip14_306_8169)">
<path d="M571.497 857.2C571.497 831.951 581.532 807.737 599.395 789.883C617.258 772.03 641.485 762 666.747 762H761.997V952.4H666.747C641.485 952.4 617.258 942.37 599.395 924.517C581.532 906.663 571.497 882.449 571.497 857.2Z" fill="#292929"/>
</g>
</g>
<defs>
<clipPath id="clip0_306_8169">
<rect width="762" height="952" fill="white"/>
</clipPath>
<clipPath id="clip1_306_8169">
<rect width="190.4" height="190.5" fill="white" transform="translate(0 190.4) rotate(-90)"/>
</clipPath>
<clipPath id="clip2_306_8169">
<rect width="190.5" height="190.4" fill="white" transform="translate(190.494)"/>
</clipPath>
<clipPath id="clip3_306_8169">
<rect width="190.4" height="190.5" fill="white" transform="translate(381.003 190.4) rotate(-90)"/>
</clipPath>
<clipPath id="clip4_306_8169">
<rect width="190.4" height="190.5" fill="white" transform="translate(381.003 380.794) rotate(-90)"/>
</clipPath>
<clipPath id="clip5_306_8169">
<rect width="190.4" height="190.5" fill="white" transform="translate(190.5 380.803) rotate(90)"/>
</clipPath>
<clipPath id="clip6_306_8169">
<rect width="190.5" height="190.4" fill="white" transform="translate(190.494 380.803)"/>
</clipPath>
<clipPath id="clip7_306_8169">
<rect width="190.4" height="190.5" fill="white" transform="translate(190.5 571.197) rotate(90)"/>
</clipPath>
<clipPath id="clip8_306_8169">
<rect width="190.5" height="190.4" fill="white" transform="translate(571.503 571.203) rotate(180)"/>
</clipPath>
<clipPath id="clip9_306_8169">
<rect width="190.5" height="190.4" fill="white" transform="translate(761.997 571.203) rotate(180)"/>
</clipPath>
<clipPath id="clip10_306_8169">
<rect width="190.4" height="190.5" fill="white" transform="translate(571.503 571.197) rotate(90)"/>
</clipPath>
<clipPath id="clip11_306_8169">
<rect width="190.4" height="190.5" fill="white" transform="translate(0 952.4) rotate(-90)"/>
</clipPath>
<clipPath id="clip12_306_8169">
<rect width="190.4" height="190.5" fill="white" transform="translate(380.994 762) rotate(90)"/>
</clipPath>
<clipPath id="clip13_306_8169">
<rect width="190.5" height="190.4" fill="white" transform="translate(381.003 762)"/>
</clipPath>
<clipPath id="clip14_306_8169">
<rect width="190.4" height="190.5" fill="white" transform="translate(761.997 762) rotate(90)"/>
</clipPath>
</defs>
</svg>
